<?xml version="1.0" encoding="UTF-8" standalone="no"?><!DOCTYPE svg PUBLIC "-//W3C//DTD SVG 1.1//EN" "http://www.w3.org/Graphics/SVG/1.1/DTD/svg11.dtd"><svg width="100%" height="100%" viewBox="0 0 744 434" version="1.1" xmlns="http://www.w3.org/2000/svg" xmlns:xlink="http://www.w3.org/1999/xlink" xml:space="preserve" xmlns:serif="http://www.serif.com/" style="fill-rule:evenodd;clip-rule:evenodd;stroke-linejoin:round;stroke-miterlimit:2;"><g id="g26"><g id="g6"><path id="path2" d="M518.75,85.833c5.833,-8.333 5,-12.083 5,-12.083c0,0 0.833,-3.75 -5,-12.083c-5.833,-8.334 -62.5,-56.667 -65.417,-58.334c-2.916,-1.666 -118.75,-9.166 -130.833,5.417c-12.083,14.583 -10.833,65 -10.833,65c-0,0 -1.25,50.417 10.833,65c12.083,14.583 127.917,7.083 130.833,5.417c2.917,-1.667 59.584,-50 65.417,-58.334Z" style="fill:#02ff9b;fill-rule:nonzero;"/><path id="path4" d="M518.75,85.833c5.833,-8.333 5,-12.083 5,-12.083c0,0 0.833,-3.75 -5,-12.083c-3.75,-5.417 -28.75,-27.5 -46.667,-42.917c-8.75,16.25 -14.166,35 -14.166,55c-0,20 5,38.75 14.166,55c17.917,-15.417 42.917,-37.5 46.667,-42.917Z" style="fill-opacity:0.25;fill-rule:nonzero;"/></g><g id="g12"><path id="path8" d="M217.5,207.083c8.333,5.834 12.083,5 12.083,5c0,0 3.75,0.834 12.084,-5c8.333,-5.833 56.666,-62.5 58.333,-65.416c1.667,-2.917 9.167,-118.75 -5.417,-130.834c-14.583,-12.083 -65,-10.833 -65,-10.833c0,0 -50.416,-0.833 -65,10.833c-14.583,11.667 -7.083,127.917 -5.416,130.834c1.666,2.916 50,59.583 58.333,65.416Z" style="fill:#02ff9b;fill-rule:nonzero;"/><path id="path10" d="M217.5,207.083c8.333,5.834 12.083,5 12.083,5c0,0 3.75,0.834 12.084,-5c5.416,-3.75 27.5,-28.75 42.916,-46.666c-16.25,-8.75 -35,-14.167 -55,-14.167c-20,0 -38.75,5 -55,14.167c15.417,17.916 37.5,42.916 42.917,46.666Z" style="fill-opacity:0.25;fill-rule:nonzero;"/></g><g id="g18"><path id="path14" d="M732.917,9.167c-12.084,-14.584 -127.917,-7.084 -130.834,-5.417c-2.916,1.667 -59.583,50 -65.416,58.333c-5.834,8.334 -5,12.084 -5,12.084c-0,-0 -0.834,3.75 5,12.083c5.833,8.333 62.5,56.667 65.416,58.333c2.917,1.667 118.75,9.167 130.834,-5.416c12.083,-14.584 10.833,-65 10.833,-65c-0,-0 1.25,-50.417 -10.833,-65Z" style="fill:#02ff9b;fill-rule:nonzero;"/><path id="path16" d="M583.75,19.167c-17.917,15.416 -42.917,37.5 -46.667,42.916c-5.833,8.334 -5,12.084 -5,12.084c0,-0 -0.833,3.75 5,12.083c3.75,5.417 28.75,27.5 46.667,42.917c8.75,-16.25 14.167,-35 14.167,-55c-0,-20 -5.417,-38.75 -14.167,-55Z" style="fill-opacity:0.25;fill-rule:nonzero;"/></g><g id="g24"><path id="path20" d="M85.833,5c-8.333,-5.833 -12.083,-5 -12.083,-5c0,0 -3.75,-0.833 -12.083,5c-8.334,5.833 -56.667,62.5 -58.334,65.417c-1.666,2.916 -9.166,118.75 5.417,130.833c14.583,12.083 65,10.833 65,10.833c0,0 50.417,1.25 65,-10.833c14.583,-12.083 7.083,-127.917 5.417,-130.833c-1.667,-2.917 -50,-59.584 -58.334,-65.417Z" style="fill:#02ff9b;fill-rule:nonzero;"/><path id="path22" d="M85.833,5c-8.333,-5.833 -12.083,-5 -12.083,-5c0,0 -3.75,-0.833 -12.083,5c-5.417,3.75 -27.5,28.75 -42.917,46.667c16.25,8.75 35,14.166 55,14.166c20,0 38.75,-5 55,-14.166c-15.417,-17.917 -37.5,-42.917 -42.917,-46.667Z" style="fill-opacity:0.25;fill-rule:nonzero;"/></g></g><g id="g52"><g id="g32"><path id="path28" d="M518.75,306.667c5.833,-8.334 5,-12.084 5,-12.084c0,0 0.833,-3.75 -5,-12.083c-5.833,-8.333 -62.5,-56.667 -65.417,-58.333c-2.916,-1.667 -118.75,-9.167 -130.833,5.416c-12.083,14.584 -10.833,65 -10.833,65c-0,0 -1.25,50.417 10.833,65c12.083,14.584 127.917,7.084 130.833,5.417c2.917,-1.667 59.584,-50 65.417,-58.333Z" style="fill:#02ffe6;fill-rule:nonzero;"/><path id="path30" d="M518.75,306.667c5.833,-8.334 5,-12.084 5,-12.084c0,0 0.833,-3.75 -5,-12.083c-3.75,-5.417 -28.75,-27.5 -46.667,-42.917c-8.75,16.25 -14.166,35 -14.166,55c-0,20 5,38.75 14.166,55c17.917,-15.416 42.917,-37.5 46.667,-42.916Z" style="fill-opacity:0.25;fill-rule:nonzero;"/></g><g id="g38"><path id="path34" d="M217.5,427.917c8.333,5.833 12.083,5 12.083,5c0,-0 3.75,0.833 12.084,-5c8.333,-5.834 56.666,-62.5 58.333,-65.417c1.667,-2.917 9.167,-118.75 -5.417,-130.833c-14.583,-12.084 -65,-10.834 -65,-10.834c0,0 -50.416,-0.833 -65,10.834c-14.583,11.666 -7.083,127.916 -5.416,130.833c1.666,2.917 50,59.583 58.333,65.417Z" style="fill:#02ffe6;fill-rule:nonzero;"/><path id="path36" d="M217.5,427.917c8.333,5.833 12.083,5 12.083,5c0,-0 3.75,0.833 12.084,-5c5.416,-3.75 27.5,-28.75 42.916,-46.667c-16.25,-8.75 -35,-14.167 -55,-14.167c-20,0 -38.75,5 -55,14.167c15.417,17.917 37.5,42.917 42.917,46.667Z" style="fill-opacity:0.25;fill-rule:nonzero;"/></g><g id="g44"><path id="path40" d="M732.917,229.583c-12.084,-14.583 -127.917,-7.083 -130.834,-5.416c-2.916,1.666 -59.583,50 -65.416,58.333c-5.834,8.333 -5,12.083 -5,12.083c-0,0 -0.834,3.75 5,12.084c5.833,8.333 62.5,56.666 65.416,58.333c2.917,1.667 118.75,9.167 130.834,-5.417c12.083,-14.583 10.833,-65 10.833,-65c-0,0 1.25,-50.416 -10.833,-65Z" style="fill:#02ffe6;fill-rule:nonzero;"/><path id="path42" d="M583.75,240c-17.917,15.417 -42.917,37.5 -46.667,42.917c-5.833,8.333 -5,12.083 -5,12.083c0,-0 -0.833,3.75 5,12.083c3.75,5.417 28.75,27.5 46.667,42.917c8.75,-16.25 14.167,-35 14.167,-55c-0,-20 -5.417,-38.75 -14.167,-55Z" style="fill-opacity:0.25;fill-rule:nonzero;"/></g><g id="g50"><path id="path46" d="M85.833,225.833c-8.333,-5.833 -12.083,-5 -12.083,-5c0,0 -3.75,-0.833 -12.083,5c-8.334,5.834 -56.667,62.5 -58.334,65.417c-1.666,2.917 -9.166,118.75 5.417,130.833c14.583,12.084 65,10.834 65,10.834c0,-0 50.417,1.25 65,-10.834c14.583,-12.083 7.083,-127.916 5.417,-130.833c-1.667,-2.917 -50,-59.583 -58.334,-65.417Z" style="fill:#02ffe6;fill-rule:nonzero;"/><path id="path48" d="M85.833,225.833c-8.333,-5.833 -12.083,-5 -12.083,-5c0,0 -3.75,-0.833 -12.083,5c-5.417,3.75 -27.5,28.75 -42.917,46.667c16.25,8.75 35,14.167 55,14.167c20,-0 38.75,-5 55,-14.167c-15.417,-17.917 -37.5,-42.917 -42.917,-46.667Z" style="fill-opacity:0.25;fill-rule:nonzero;"/></g></g></svg>