<?xml version="1.0" encoding="UTF-8" standalone="no"?><!DOCTYPE svg PUBLIC "-//W3C//DTD SVG 1.1//EN" "http://www.w3.org/Graphics/SVG/1.1/DTD/svg11.dtd"><svg width="100%" height="100%" viewBox="0 0 1192 392" version="1.1" xmlns="http://www.w3.org/2000/svg" xmlns:xlink="http://www.w3.org/1999/xlink" xml:space="preserve" xmlns:serif="http://www.serif.com/" style="fill-rule:evenodd;clip-rule:evenodd;stroke-linejoin:round;stroke-miterlimit:2;"><g id="g12"><g id="g8"><path id="path4" d="M195.833,385.417c-104.583,-0 -189.583,-85 -189.583,-189.584c0,-104.583 85,-189.583 189.583,-189.583c104.584,-0 189.584,85 189.584,189.583c-0,104.584 -85,189.584 -189.584,189.584Z" style="fill-rule:nonzero;"/><path id="path6" d="M195.833,12.5c101.25,0 183.334,82.083 183.334,183.333c-0,101.25 -82.084,183.334 -183.334,183.334c-101.25,-0 -183.333,-82.084 -183.333,-183.334c-0,-101.25 82.083,-183.333 183.333,-183.333m0,-12.5c-108.333,-0 -195.833,87.5 -195.833,195.833c-0,108.334 87.5,195.834 195.833,195.834c108.334,-0 195.834,-87.5 195.834,-195.834c-0,-108.333 -87.5,-195.833 -195.834,-195.833Z" style="fill-rule:nonzero;"/></g><circle id="circle10" cx="195.833" cy="195.833" r="113.75"/></g><g id="g28"><g id="g18"><path id="path14" d="M995.833,385.417c-104.583,-0 -189.583,-85 -189.583,-189.584c0,-104.583 85,-189.583 189.583,-189.583c104.584,-0 189.584,85 189.584,189.583c-0,104.584 -85,189.584 -189.584,189.584Z" style="fill:#f0f0f0;fill-rule:nonzero;"/><path id="path16" d="M995.833,12.5c101.25,0 183.334,82.083 183.334,183.333c-0,101.25 -82.084,183.334 -183.334,183.334c-101.25,-0 -183.333,-82.084 -183.333,-183.334c0,-101.25 82.083,-183.333 183.333,-183.333m0,-12.5c-108.333,-0 -195.833,87.5 -195.833,195.833c0,108.334 87.5,195.834 195.833,195.834c108.334,-0 195.834,-87.5 195.834,-195.834c-0,-108.333 -87.5,-195.833 -195.834,-195.833Z" style="fill:#ededed;fill-rule:nonzero;"/></g><circle id="circle20" cx="995.833" cy="195.833" r="113.75" style="fill:#f0f0f0;"/></g><g id="g44"><g id="g34"><path id="path30" d="M595.833,385.417c-104.583,-0 -189.583,-85 -189.583,-189.584c0,-104.583 85,-189.583 189.583,-189.583c104.584,-0 189.584,85 189.584,189.583c-0,104.584 -85,189.584 -189.584,189.584Z" style="fill:#f0f0f0;fill-rule:nonzero;"/><path id="path32" d="M595.833,12.5c101.25,0 183.334,82.083 183.334,183.333c-0,101.25 -82.084,183.334 -183.334,183.334c-101.25,-0 -183.333,-82.084 -183.333,-183.334c0,-101.25 82.083,-183.333 183.333,-183.333m0,-12.5c-108.333,-0 -195.833,87.5 -195.833,195.833c0,108.334 87.5,195.834 195.833,195.834c108.334,-0 195.834,-87.5 195.834,-195.834c-0,-108.333 -87.5,-195.833 -195.834,-195.833Z" style="fill:#ededed;fill-rule:nonzero;"/></g><circle id="circle36" cx="595.833" cy="195.833" r="113.75" style="fill:#f0f0f0;"/></g></svg>