<?xml version="1.0" encoding="UTF-8" standalone="no"?><!DOCTYPE svg PUBLIC "-//W3C//DTD SVG 1.1//EN" "http://www.w3.org/Graphics/SVG/1.1/DTD/svg11.dtd"><svg width="100%" height="100%" viewBox="0 0 934 468" version="1.1" xmlns="http://www.w3.org/2000/svg" xmlns:xlink="http://www.w3.org/1999/xlink" xml:space="preserve" xmlns:serif="http://www.serif.com/" style="fill-rule:evenodd;clip-rule:evenodd;stroke-linejoin:round;stroke-miterlimit:2;"><g id="g42"><g id="g10"><g id="g6"><path id="path2" d="M349.167,463.75c-60.417,0 -109.584,-49.167 -109.584,-109.583c0,-60.417 49.167,-109.167 109.584,-109.167c60.416,0 109.166,49.167 109.166,109.583c0,60.417 -49.166,109.167 -109.166,109.167Z" style="fill:#e6e6e6;fill-rule:nonzero;"/><path id="path4" d="M349.167,249.167c57.916,-0 105.416,47.083 105.416,105c0,57.916 -47.083,105.416 -105.416,105.416c-58.334,0 -105.417,-47.083 -105.417,-105c0,-57.916 47.083,-105.416 105.417,-105.416m-0,-8.334c-62.5,0 -113.75,50.834 -113.75,113.334c-0,62.5 50.833,113.75 113.75,113.75c62.916,-0 113.333,-50.834 113.333,-113.334c0,-62.5 -50.833,-113.75 -113.333,-113.75Z" style="fill:#f0f0f0;fill-rule:nonzero;"/></g><path id="path8" d="M349.167,275.833c-43.334,0 -78.75,35.417 -78.75,78.75c-0,43.334 35.416,78.75 78.75,78.75c43.333,0 78.75,-35.416 78.75,-78.75c-0.417,-43.75 -35.417,-78.75 -78.75,-78.75Zm-0,145.417c-37.084,0 -66.667,-30 -66.667,-66.667c0,-37.083 30,-66.666 66.667,-66.666c36.666,-0 66.666,30 66.666,66.666c0,36.667 -30,66.667 -66.666,66.667Z" style="fill:#02ffe6;fill-rule:nonzero;"/></g><g id="g20"><g id="g16"><path id="path12" d="M113.333,463.75c-60,0 -109.166,-48.75 -109.166,-109.167c-0,-60.416 49.166,-109.166 109.583,-109.166c60.417,-0 109.583,49.166 109.583,109.166c0,60 -49.583,109.167 -110,109.167Z" style="fill:#e6e6e6;fill-rule:nonzero;"/><path id="path14" d="M113.75,249.167c57.917,-0 105.417,47.083 105.417,105c-0,57.916 -47.084,105.416 -105.417,105.416c-58.333,0 -105.417,-47.083 -105.417,-105c0,-57.916 47.084,-105.416 105.417,-105.416m0,-8.334c-62.917,0 -113.75,51.25 -113.75,113.75c0,62.5 50.833,113.75 113.75,113.75c62.917,0 113.75,-50.833 113.75,-113.75c-0.417,-62.5 -51.25,-113.75 -113.75,-113.75Z" style="fill:#f0f0f0;fill-rule:nonzero;"/></g><path id="polygon18" d="M173.333,302.917l-8.333,-8.334l-51.25,51.667l-51.667,-51.667l-8.333,8.334l51.25,51.666l-51.25,51.25l8.333,8.75l51.667,-51.666l51.25,51.666l8.333,-8.75l-51.25,-51.25l51.25,-51.666Z" style="fill:#02ffe6;fill-rule:nonzero;"/></g><g id="g30"><g id="g26"><path id="path22" d="M584.583,463.75c-60.416,0 -109.166,-49.167 -109.166,-109.583c-0,-60.417 49.166,-109.167 109.166,-109.167c60,0 109.584,49.167 109.584,109.167c-0,60 -49.584,109.583 -109.584,109.583Z" style="fill:#e6e6e6;fill-rule:nonzero;"/><path id="path24" d="M584.583,249.167c57.917,-0 105.417,47.083 105.417,105c-0,57.916 -47.083,105.416 -105.417,105.416c-58.333,0 -105.416,-47.083 -105.416,-105c-0,-57.916 47.083,-105.416 105.416,-105.416m0,-8.334c-62.5,0 -113.75,50.834 -113.75,113.334c0,62.5 50.834,113.75 113.75,113.75c62.917,-0 113.75,-50.834 113.75,-113.75c0,-62.917 -51.25,-113.334 -113.75,-113.334Z" style="fill:#f0f0f0;fill-rule:nonzero;"/></g><path id="path28" d="M644.167,294.583l-119.167,0l0,119.167l119.167,0l-0,-119.167Zm-11.667,107.917l-95.833,0l-0,-95.833l95.833,-0l0,95.833Z" style="fill:#02ffe6;fill-rule:nonzero;"/></g><g id="g40"><g id="g36"><path id="path32" d="M819.583,463.75c-60.416,0 -109.583,-49.167 -109.583,-109.583c0,-60.417 49.167,-109.167 109.583,-109.167c60.417,0 109.584,49.167 109.584,109.583c-0,60.417 -49.167,109.167 -109.584,109.167Z" style="fill:#e6e6e6;fill-rule:nonzero;"/><path id="path34" d="M820,249.167c57.917,-0 105.417,47.083 105.417,105c-0,57.916 -47.084,105.416 -105.417,105.416c-58.333,0 -105.417,-47.083 -105.417,-105c0,-57.916 47.084,-105.416 105.417,-105.416m0,-8.334c-62.5,0 -113.75,50.834 -113.75,113.334c-0,62.5 50.833,113.75 113.75,113.75c62.917,-0 113.333,-50.834 113.333,-113.334c0,-62.5 -50.833,-113.75 -113.333,-113.75Z" style="fill:#f0f0f0;fill-rule:nonzero;"/></g><path id="path38" d="M886.25,387.917l-66.667,-115l-66.666,115l-6.667,11.666l146.667,0l-6.667,-11.666Zm-13.333,-0l-105.834,-0l52.917,-91.25l52.917,91.25Z" style="fill:#02ffe6;fill-rule:nonzero;"/></g></g><g id="g84"><g id="g52"><g id="g48"><path id="path44" d="M349.167,222.917c-60.417,-0 -109.584,-49.167 -109.584,-109.584c0,-60.416 49.167,-109.166 109.584,-109.166c60.416,-0 109.166,49.166 109.166,109.166c0,60 -49.166,109.584 -109.166,109.584Z" style="fill:#1a1a1a;fill-rule:nonzero;"/><path id="path46" d="M349.167,8.333c57.916,0 105,47.084 105,105.417c-0,58.333 -47.084,105 -105,105c-57.917,0 -105.417,-47.083 -105.417,-105c0,-57.917 47.083,-105.417 105.417,-105.417m-0,-8.333c-62.5,0 -113.75,50.833 -113.75,113.75c-0,62.917 50.833,113.75 113.75,113.75c62.916,0 113.333,-51.25 113.333,-113.75c0,-62.5 -50.833,-113.75 -113.333,-113.75Z" style="fill:#0f0f0f;fill-rule:nonzero;"/></g><path id="path50" d="M349.167,35c-43.334,0 -78.75,35.417 -78.75,78.75c-0,43.333 35.416,78.75 78.75,78.75c43.333,-0 78.75,-35.417 78.75,-78.75c-0.417,-43.75 -35.417,-78.75 -78.75,-78.75Zm-0,145.417c-37.084,-0 -66.667,-30 -66.667,-66.667c0,-37.083 30,-66.667 66.667,-66.667c36.666,0 66.666,30 66.666,66.667c0,36.667 -30,66.667 -66.666,66.667Z" style="fill:#02ff9b;fill-rule:nonzero;"/></g><g id="g62"><g id="g58"><path id="path54" d="M113.333,222.917c-60,-0 -109.166,-49.167 -109.166,-109.167c-0,-60 49.166,-109.583 109.166,-109.583c60,-0 109.584,49.166 109.584,109.583c-0,60.417 -49.167,109.167 -109.584,109.167Z" style="fill:#1a1a1a;fill-rule:nonzero;"/><path id="path56" d="M113.75,8.333c57.917,0 105.417,47.084 105.417,105.417c-0,58.333 -47.5,105 -105.417,105c-57.917,0 -105.417,-47.083 -105.417,-105c0,-57.917 47.084,-105.417 105.417,-105.417m0,-8.333c-62.917,0 -113.75,50.833 -113.75,113.75c0,62.5 50.833,113.75 113.75,113.75c62.917,0 113.75,-50.833 113.75,-113.75c-0.417,-62.917 -51.25,-113.75 -113.75,-113.75Z" style="fill:#0f0f0f;fill-rule:nonzero;"/></g><path id="polygon60" d="M173.333,62.083l-8.333,-8.333l-51.25,51.25l-51.667,-51.25l-8.333,8.333l51.25,51.25l-51.25,51.667l8.333,8.333l51.667,-51.25l51.25,51.25l8.333,-8.333l-51.25,-51.667l51.25,-51.25Z" style="fill:#02ff9b;fill-rule:nonzero;"/></g><g id="g72"><g id="g68"><path id="path64" d="M584.583,225.833c-60.416,0 -109.166,-49.166 -109.166,-109.166c-0,-60 49.166,-109.584 109.166,-109.584c60,0 109.584,49.167 109.584,109.584c-0,60.416 -49.584,109.166 -109.584,109.166Z" style="fill:#1a1a1a;fill-rule:nonzero;"/><path id="path66" d="M584.583,11.25c57.917,-0 105.417,47.083 105.417,105.417c-0,58.333 -47.083,105 -105.417,105c-58.333,-0 -105.416,-47.084 -105.416,-105.417c-0,-58.333 47.083,-105 105.416,-105m0,-8.333c-62.5,-0 -113.75,50.833 -113.75,113.75c0,62.916 50.834,113.333 113.75,113.333c62.917,-0 113.75,-50.833 113.75,-113.333c0,-62.5 -51.25,-113.75 -113.75,-113.75Z" style="fill:#0f0f0f;fill-rule:nonzero;"/></g><path id="path70" d="M644.167,56.25l-119.167,0l0,119.167l119.167,-0l-0,-119.167Zm-11.667,107.917l-95.833,-0l-0,-95.834l95.833,0l0,95.834Z" style="fill:#02ff9b;fill-rule:nonzero;"/></g><g id="g82"><g id="g78"><path id="path74" d="M819.583,228.333c-60.416,0 -109.583,-49.166 -109.583,-109.583c0,-60.417 49.167,-109.583 109.583,-109.583c60.417,-0 109.584,49.583 109.584,110c-0,60.416 -49.167,109.166 -109.584,109.166Z" style="fill:#1a1a1a;fill-rule:nonzero;"/><path id="path76" d="M820,13.75c57.917,0 105.417,47.083 105.417,105.417c-0,58.333 -47.084,105.416 -105.417,105.416c-58.333,0 -105.417,-47.083 -105.417,-105.416c0,-58.334 47.084,-105.417 105.417,-105.417m0,-8.333c-62.5,-0 -113.75,50.833 -113.75,113.75c-0,62.916 50.833,113.75 113.75,113.75c62.917,-0 113.333,-51.25 113.333,-113.75c0,-62.5 -50.833,-113.75 -113.333,-113.75Z" style="fill:#0f0f0f;fill-rule:nonzero;"/></g><path id="path80" d="M886.25,152.5l-66.667,-115l-66.666,115l-6.667,11.667l146.667,-0l-6.667,-11.667Zm-13.333,0l-105.834,0l52.917,-91.25l52.917,91.25Z" style="fill:#02ff9b;fill-rule:nonzero;"/></g></g></svg>