<?xml version="1.0" encoding="UTF-8" standalone="no"?><!DOCTYPE svg PUBLIC "-//W3C//DTD SVG 1.1//EN" "http://www.w3.org/Graphics/SVG/1.1/DTD/svg11.dtd"><svg width="100%" height="100%" viewBox="0 0 119 195" version="1.1" xmlns="http://www.w3.org/2000/svg" xmlns:xlink="http://www.w3.org/1999/xlink" xml:space="preserve" xmlns:serif="http://www.serif.com/" style="fill-rule:evenodd;clip-rule:evenodd;stroke-linejoin:round;stroke-miterlimit:2;"><g id="g6"><path id="path2" d="M59.167,7.083c28.75,0 52.083,23.334 52.083,52.084l-0,76.25c-0,28.75 -23.333,52.083 -52.083,52.083c-28.75,0 -52.084,-23.333 -52.084,-52.083l0,-76.25c0,-28.75 23.334,-52.084 52.084,-52.084m-0,-7.083c-32.5,0 -59.167,26.667 -59.167,59.167l0,76.25c0,32.5 26.667,59.166 59.167,59.166c32.5,0 59.166,-26.666 59.166,-59.166l0,-76.25c0,-32.5 -26.666,-59.167 -59.166,-59.167Z" style="fill:#ebebeb;fill-rule:nonzero;"/><path id="path4" d="M59.167,7.083c-28.75,0 -52.084,23.334 -52.084,52.084l0,76.25c0,28.75 23.334,52.083 52.084,52.083c28.75,0 52.083,-23.333 52.083,-52.083l-0,-76.25c-0,-28.75 -23.333,-52.084 -52.083,-52.084Z" style="fill:#02ffe6;fill-rule:nonzero;"/></g></svg>